<?xml version="1.0" encoding="UTF-8"?><svg id="Layer_1" xmlns="http://www.w3.org/2000/svg" viewBox="0 0 803.31 217.86"><defs><style>.cls-1{fill:#f31c18;}.cls-2{fill:#f41115;}.cls-3{fill:#fff;font-family:FuturaLT-Heavy, 'Futura LT';font-size:118px;font-weight:800;}</style></defs><path class="cls-1" d="M229.45,97.51h-53.65l3.91,2.26c3.51,2.02,5.6,5.65,5.6,9.7s-2.09,7.68-5.6,9.7l-24.43,14.1c.22.41.43.83.66,1.24h27.5c-3.8,8.76-13.24,16.03-22.02,19.48-13.4,5.26-25.16,4.65-38.34-.62-2.12-.85-7.67-4.86-8.14-4.86H22.45c-.19,2.17,2.81,9.2,4.66,9.84l41.68.32c5.11,5.51,10.46,12,16.19,16.81,6.37,5.33,13.97,8.93,20.47,14.03H41.45c.06,2.44,2.31,10.82,4.46,11.07,44.96,0,92.43,6.1,129.9-10.22,36.27-15.79,56.53-53.72,53.64-92.86Z"/><path class="cls-1" d="M59.45,140.51c-17.69-49.32,3.37-104.72,55.23-120.27,22.91-6.87,51.16-5.23,72.45,6.08,4.63,2.46,26.06,17.74,25.16,22.54-.44,2.34-26.93,21.88-30.39,25.61l-1.43.03c-14.62-22.34-47.99-25.57-68.5-8.97-22.68,18.35-24.21,52.61-6.52,74.98h-46Z"/><path class="cls-1" d="M66.45,170.51l8.99,9H9.45c-.47,0-3.02-7.83-3-9h60Z"/><path class="cls-2" d="M167.36,104.88l-31.13-17.98c-3.53-2.04-7.95.51-7.95,4.59v35.95c0,4.08,4.42,6.63,7.95,4.59l31.13-17.98c3.53-2.04,3.53-7.14,0-9.18Z"/><text class="cls-3" transform="translate(261.27 147.4)"><tspan x="0" y="0">GioMotion</tspan></text></svg>