<?xml version="1.0" encoding="UTF-8"?><svg id="Layer_1" xmlns="http://www.w3.org/2000/svg" viewBox="0 0 784.52 185.54"><defs><style>.cls-1{fill:#fff;}.cls-2{fill:#f31c18;}.cls-3{fill:#f41115;}</style></defs><path class="cls-2" d="M223,81.35h-53.65l3.91,2.26c3.51,2.02,5.6,5.65,5.6,9.7s-2.09,7.68-5.6,9.7l-24.43,14.1c.22.41.43.83.66,1.24h27.5c-3.8,8.76-13.24,16.03-22.02,19.48-13.4,5.26-25.16,4.65-38.34-.62-2.12-.85-7.67-4.86-8.14-4.86H16c-.19,2.17,2.81,9.2,4.66,9.84l41.68.32c5.11,5.51,10.46,12,16.19,16.81,6.37,5.33,13.97,8.93,20.47,14.03H35c.06,2.44,2.31,10.82,4.46,11.07,44.96,0,92.43,6.1,129.9-10.22,36.27-15.79,56.53-53.72,53.64-92.86Z"/><path class="cls-2" d="M53,124.35c-17.69-49.32,3.37-104.72,55.23-120.27,22.91-6.87,51.16-5.23,72.45,6.08,4.63,2.46,26.06,17.74,25.16,22.54-.44,2.34-26.93,21.88-30.39,25.61l-1.43.03c-14.62-22.34-47.99-25.57-68.5-8.97-22.68,18.35-24.21,52.61-6.52,74.98h-46Z"/><path class="cls-2" d="M60,154.35l8.99,9H3C2.53,163.35-.02,155.52,0,154.35h60Z"/><path class="cls-3" d="M160.91,88.72l-31.13-17.98c-3.53-2.04-7.95.51-7.95,4.59v35.95c0,4.08,4.42,6.63,7.95,4.59l31.13-17.98c3.53-2.04,3.53-7.14,0-9.18Z"/><path class="cls-1" d="M301.43,83.93h38.35v2.24c0,6.45-.83,12.47-2.48,18.05-1.65,5.59-4.09,10.6-7.32,15.05-3.23,4.45-7.47,7.95-12.74,10.5-5.27,2.56-11.25,3.83-17.94,3.83-8.34,0-15.79-2.18-22.36-6.55-6.57-4.37-11.55-10.05-14.93-17.05-3.38-7-5.07-14.63-5.07-22.89,0-13.14,4.01-24.29,12.04-33.45,8.02-9.16,18.49-13.75,31.39-13.75,7.63,0,14.55,1.85,20.77,5.55,6.21,3.7,11.01,8.93,14.4,15.69l-15.34,8.26c-1.81-4.17-4.52-7.57-8.14-10.21-3.62-2.63-7.67-3.95-12.15-3.95-7.79,0-13.91,3.27-18.35,9.79-4.45,6.53-6.67,13.89-6.67,22.07,0,5.11.9,9.99,2.71,14.63,1.81,4.64,4.68,8.56,8.61,11.74,3.93,3.19,8.53,4.78,13.81,4.78s10.03-2.01,14.04-6.02c4.01-4.01,6.1-8.73,6.25-14.16h-18.88v-14.16Z"/><path class="cls-1" d="M350.11,42.1c1.93-1.93,4.23-2.89,6.9-2.89s4.97.96,6.9,2.89c1.93,1.93,2.89,4.23,2.89,6.9s-.94,5.07-2.83,6.96-4.21,2.83-6.96,2.83-5.07-.94-6.96-2.83-2.83-4.21-2.83-6.96.96-4.97,2.89-6.9ZM365.27,73.31v57.94h-16.52v-57.94h16.52Z"/><path class="cls-1" d="M382.26,80.09c5.66-5.78,12.98-8.67,21.95-8.67s16.29,2.89,21.95,8.67c5.66,5.78,8.5,13.2,8.5,22.24s-2.81,16.44-8.44,22.18c-5.62,5.74-12.96,8.61-22.01,8.61s-16.38-2.87-22.01-8.61c-5.63-5.74-8.44-13.14-8.44-22.18s2.83-16.46,8.5-22.24ZM414.12,91.01c-2.52-3.3-5.82-4.96-9.91-4.96s-7.39,1.65-9.91,4.96c-2.52,3.3-3.78,7.08-3.78,11.33s1.28,7.91,3.83,11.21c2.56,3.3,5.84,4.96,9.85,4.96s7.3-1.65,9.85-4.96c2.55-3.3,3.83-7.04,3.83-11.21s-1.26-8.02-3.78-11.33Z"/><path class="cls-1" d="M516.43,131.24l-7.08-55.22h-.24l-20.18,56.4h-6.02l-19.47-56.4h-.24l-7.91,55.22h-17.46l14.99-91.33h12.27l21.95,58.65,21-58.65h12.51l13.33,91.33h-17.46Z"/><path class="cls-1" d="M545.57,80.09c5.66-5.78,12.98-8.67,21.95-8.67s16.28,2.89,21.95,8.67c5.66,5.78,8.5,13.2,8.5,22.24s-2.81,16.44-8.44,22.18c-5.62,5.74-12.96,8.61-22.01,8.61s-16.38-2.87-22.01-8.61c-5.62-5.74-8.44-13.14-8.44-22.18s2.83-16.46,8.5-22.24ZM577.43,91.01c-2.52-3.3-5.82-4.96-9.91-4.96s-7.4,1.65-9.91,4.96c-2.52,3.3-3.78,7.08-3.78,11.33s1.28,7.91,3.83,11.21c2.56,3.3,5.84,4.96,9.85,4.96s7.3-1.65,9.85-4.96c2.56-3.3,3.83-7.04,3.83-11.21s-1.26-8.02-3.78-11.33Z"/><path class="cls-1" d="M624.28,87.23v44.01h-16.52v-44.01h-5.66v-13.92h5.66v-19.59h16.52v19.59h10.15v13.92h-10.15Z"/><path class="cls-1" d="M640.27,42.1c1.93-1.93,4.23-2.89,6.9-2.89s4.97.96,6.9,2.89c1.93,1.93,2.89,4.23,2.89,6.9s-.94,5.07-2.83,6.96c-1.89,1.89-4.21,2.83-6.96,2.83s-5.07-.94-6.96-2.83c-1.89-1.89-2.83-4.21-2.83-6.96s.96-4.97,2.89-6.9ZM655.43,73.31v57.94h-16.52v-57.94h16.52Z"/><path class="cls-1" d="M672.42,80.09c5.66-5.78,12.98-8.67,21.95-8.67s16.28,2.89,21.95,8.67c5.66,5.78,8.5,13.2,8.5,22.24s-2.81,16.44-8.44,22.18c-5.62,5.74-12.96,8.61-22.01,8.61s-16.38-2.87-22.01-8.61c-5.62-5.74-8.44-13.14-8.44-22.18s2.83-16.46,8.5-22.24ZM704.28,91.01c-2.52-3.3-5.82-4.96-9.91-4.96s-7.4,1.65-9.91,4.96c-2.52,3.3-3.78,7.08-3.78,11.33s1.28,7.91,3.83,11.21c2.56,3.3,5.84,4.96,9.85,4.96s7.3-1.65,9.85-4.96c2.56-3.3,3.83-7.04,3.83-11.21s-1.26-8.02-3.78-11.33Z"/><path class="cls-1" d="M749.12,73.31v5.31h.24c3.15-4.8,8.18-7.2,15.1-7.2,13.37,0,20.06,8.14,20.06,24.43v35.4h-16.52v-35.16c0-.79-.16-2.1-.47-3.95-.32-1.85-.75-3.19-1.3-4.01-.55-.83-1.44-1.61-2.66-2.36-1.22-.75-2.73-1.12-4.54-1.12-2.28,0-4.15.55-5.61,1.65-1.46,1.1-2.46,2.73-3.01,4.9-.55,2.16-.91,3.99-1.06,5.49-.16,1.5-.24,3.46-.24,5.9v28.67h-16.52v-57.94h16.52Z"/></svg>